<?xml version="1.0" encoding="UTF-8"?>
<svg width="137px" height="78px" viewBox="0 0 137 78" version="1.1" xmlns="http://www.w3.org/2000/svg" xmlns:xlink="http://www.w3.org/1999/xlink">
    <!-- Generator: Sketch 48.2 (47327) - http://www.bohemiancoding.com/sketch -->
    <title>ic_star_logo</title>
    <desc>Created with Sketch.</desc>
    <defs>
        <filter x="-30.0%" y="-75.0%" width="160.0%" height="250.0%" filterUnits="objectBoundingBox" id="filter-1">
            <feOffset dx="0" dy="0" in="SourceAlpha" result="shadowOffsetOuter1"></feOffset>
            <feGaussianBlur stdDeviation="10" in="shadowOffsetOuter1" result="shadowBlurOuter1"></feGaussianBlur>
            <feColorMatrix values="0 0 0 0 0.176470588   0 0 0 0 0.28627451   0 0 0 0 0.419607843  0 0 0 0.66 0" type="matrix" in="shadowBlurOuter1" result="shadowMatrixOuter1"></feColorMatrix>
            <feMerge>
                <feMergeNode in="shadowMatrixOuter1"></feMergeNode>
                <feMergeNode in="SourceGraphic"></feMergeNode>
            </feMerge>
        </filter>
        <polygon id="path-2" points="0 0.11580271 11.4459181 0.11580271 11.4459181 16.5853659 0 16.5853659"></polygon>
        <polygon id="path-4" points="0.124512429 0.348734959 14.4753943 0.348734959 14.4753943 16.3056997 0.124512429 16.3056997"></polygon>
    </defs>
    <g id="ic_star_logo_shadow" stroke="none" stroke-width="1" fill="none" fill-rule="evenodd" transform="translate(19.000000, 19.000000)">
        <g id="ic_star_logo" filter="url(#filter-1)">
            <g id="ic_star">
                <path d="M19.9949951,3.38896552 C10.8383448,3.38896552 3.38908374,10.8384236 3.38908374,19.9948768 C3.38908374,29.1515271 10.8383448,36.6009852 19.9949951,36.6009852 C29.1516453,36.6009852 36.6009064,29.1515271 36.6009064,19.9948768 C36.6009064,10.8384236 29.1516453,3.38896552 19.9949951,3.38896552 M19.9949951,39.9899507 C8.9697734,39.9899507 -7.8817734e-05,31.0202956 -7.8817734e-05,19.9948768 C-7.8817734e-05,8.96965517 8.9697734,0 19.9949951,0 C31.0202167,0 39.990069,8.96965517 39.990069,19.9948768 C39.990069,31.0202956 31.0202167,39.9899507 19.9949951,39.9899507" id="Fill-5" fill="#FFFFFF"></path>
                <g id="Group" stroke-width="1" transform="translate(8.866995, 7.881773)">
                    <polygon id="Fill-1" fill="#FFFFFF" points="16.7008473 3.4311133 0.0291231527 9.47623645 0.0291231527 6.2137734 16.7008473 0.168453202"></polygon>
                    <polygon id="Fill-2" fill="#FFFFFF" points="16.6717241 14.8882759 0 20.933399 0 17.670936 16.6717241 11.6256158"></polygon>
                    <polygon id="Fill-3" fill="#8ADF2C" points="22.2269557 7.13684729 5.55523153 13.1821675 5.55523153 9.91950739 22.2269557 3.87438424"></polygon>
                    <polygon id="Fill-4" fill="#8ADF2C" points="22.1889655 18.2378325 5.51724138 24.2831527 5.51724138 21.0204926 22.1889655 14.9753695"></polygon>
                </g>
            </g>
            <g id="ic_star" transform="translate(42.592593, 20.465116)">
                <g id="Page-1">
                    <g id="Group-3">
                        <mask id="mask-3" fill="white">
                            <use xlink:href="#path-2"></use>
                        </mask>
                        <g id="Clip-2"></g>
                        <path d="M0,15.9677268 C0.0730566964,14.7868488 0.101836607,13.8230547 0.0867087054,13.0770818 C1.53197679,13.7685073 2.87688415,14.1145886 4.1214308,14.1145886 C4.61954464,14.1145886 5.09293728,14.0386645 5.54197768,13.8868163 C5.99101808,13.7357051 6.33453214,13.5219382 6.57251987,13.2462526 C6.81013862,12.9705669 6.94887254,12.661342 6.98798371,12.3193149 C7.01823951,12.0554233 6.99573214,11.8184369 6.92083058,11.6083556 C6.80497299,11.3212444 6.5913375,11.0216022 6.28029308,10.710903 C5.88475379,10.2837377 5.17226652,9.58014959 4.14246228,8.60124444 C3.65246585,8.12764011 3.3155933,7.78966721 3.13184464,7.58732575 C2.71601183,7.14468076 2.40422946,6.74589485 2.1957596,6.39244228 C1.98728973,6.03935827 1.8485558,5.68701138 1.77992679,5.33761301 C1.71129777,4.98784607 1.69949063,4.61485962 1.74487433,4.21865366 C1.82900022,3.488529 2.11163371,2.80263198 2.59351272,2.16133117 C3.07539174,1.52039892 3.74360223,1.0191523 4.5981442,0.657959892 C5.45231719,0.296398916 6.49835625,0.11580271 7.73478549,0.11580271 C8.84723973,0.11580271 10.0840379,0.25180271 11.4459181,0.52380271 C11.391679,1.33206287 11.3636371,2.25678916 11.3606853,3.29798157 C10.2028473,2.83137995 9.11142455,2.5984477 8.08678594,2.5984477 C7.3255942,2.5984477 6.68284286,2.77130407 6.15816295,3.11738537 C5.63311406,3.4630981 5.34457701,3.86520108 5.29181384,4.32369431 C5.27779286,4.44790027 5.27926875,4.57837182 5.29771741,4.71400325 C5.31616607,4.85000325 5.35121853,4.98194905 5.40435067,5.11057778 C5.45748281,5.23846938 5.55858147,5.40579729 5.7083846,5.61145583 C5.85818772,5.81748293 6.0843683,6.05815501 6.38692634,6.33384065 C6.6891154,6.60989485 6.94924152,6.83361301 7.16619777,7.00462656 L8.4564971,8.30971057 C8.78635915,8.61303848 9.07895491,8.90862656 9.33280848,9.19573767 C9.5874,9.48321734 9.80251138,9.75890298 9.97740469,10.0231631 C10.1530359,10.2874233 10.2851283,10.5398894 10.3740509,10.7809301 C10.4626045,11.0216022 10.5216402,11.2689084 10.551158,11.521006 C10.5803069,11.7734721 10.5792,12.0399436 10.5470993,12.3193149 C10.4721978,12.9724098 10.2497069,13.5879111 9.87999576,14.1669247 C9.50991563,14.7459382 9.0199192,15.2221225 8.40926853,15.5947404 C7.79861786,15.9677268 7.14664219,16.2257214 6.45297254,16.3698298 C5.76004085,16.5132011 5.0361154,16.5854396 4.28156518,16.5854396 C3.78345134,16.5854396 3.20859107,16.5430547 2.55772232,16.4571794 C1.9064846,16.3716726 1.05341853,16.2087675 0,15.9677268" id="Fill-1" fill="#FFFFFF" mask="url(#mask-3)"></path>
                    </g>
                    <path d="M15.3981082,16.1707317 L16.0438133,12.8002912 L16.8800605,7.77894078 L17.6145869,2.83862108 L16.8000844,2.83862108 L16.0419706,2.84993618 L15.3192378,2.86161629 L12.6214286,2.94228202 C12.811602,1.83413199 12.9442812,0.991704368 13.0190974,0.414634146 C15.2540039,0.429964285 17.5946851,0.437629354 20.0418781,0.437629354 L24.2256937,0.425949249 L26.4642857,0.414634146 C26.2601073,1.50927905 26.1237426,2.35243668 26.0551917,2.94228202 C24.6565324,2.87293139 23.3127875,2.83862108 22.0228514,2.83862108 L21.1254245,2.83862108 L20.7428663,4.94724516 L19.468778,13.0594436 L19.2885555,14.4190809 C19.2155819,14.9800909 19.1444512,15.5640962 19.0744261,16.1707317 L17.302791,16.1477365 C17.1085634,16.1477365 16.4735463,16.1554016 15.3981082,16.1707317" id="Fill-4" fill="#FFFFFF"></path>
                    <path d="M30.8943701,8.17131933 L35.3433826,8.17131933 L34.1325522,2.82840099 L32.9690829,4.77131357 L30.8943701,8.17131933 Z M22.3928571,16.1707317 C23.3610075,14.7548839 24.5079554,13.0039631 25.8329667,10.9183342 L29.5601803,5.08959645 C30.7203453,3.28867015 31.6903314,1.73047105 32.4694042,0.414634146 C33.4735344,0.429964285 34.1846861,0.437629354 34.6028595,0.437629354 C35.3378755,0.437629354 36.0585729,0.429964285 36.7645847,0.414634146 L37.8792243,5.13558686 L40.3618305,14.9008852 L40.7142857,16.1707317 L38.9777096,16.1477365 C38.5756904,16.1477365 37.8986827,16.1554016 36.9459523,16.1707317 C36.8387472,15.4856205 36.6526068,14.5621622 36.387164,13.4003566 C36.121354,12.2385511 35.8907896,11.2957476 35.6947364,10.5723111 L29.585513,10.5723111 C28.4690378,12.4038976 27.372021,14.2701595 26.2944627,16.1707317 L24.4040546,16.1477365 C24.047928,16.1477365 23.3775288,16.1554016 22.3928571,16.1707317 Z" id="Fill-6" fill="#FFFFFF"></path>
                    <g id="Group-10" transform="translate(42.342857, 0.000000)">
                        <mask id="mask-5" fill="white">
                            <use xlink:href="#path-4"></use>
                        </mask>
                        <g id="Clip-9"></g>
                        <path d="M0.124512429,16.3056997 C0.621023143,13.9903827 1.09921243,11.3286157 1.55871386,8.32150461 C2.01784886,5.3143935 2.37731529,2.672529 2.63674671,0.395911111 C3.56161243,0.411390786 4.33660886,0.419130623 4.96246886,0.419130623 C5.63413243,0.419130623 6.29407029,0.406968022 6.94154957,0.384117073 C7.58902886,0.360528997 8.27205171,0.348734959 8.99061814,0.348734959 C9.886536,0.348734959 10.6820524,0.399596748 11.376801,0.500583198 C12.071916,0.601938211 12.6732253,0.834870461 13.179996,1.20011707 C13.6864003,1.56536369 14.0429353,2.00800867 14.2503339,2.52878916 C14.4577324,3.04920108 14.5218574,3.65548835 14.4427089,4.34728238 C14.393241,4.78218753 14.2961374,5.19571599 14.1506653,5.58823631 C14.005926,5.98075664 13.8150167,6.34968889 13.5786703,6.69577019 C13.3419574,7.04148293 13.0740981,7.34444228 12.7739931,7.60464824 C12.4735217,7.86559133 12.1818446,8.0708813 11.8982289,8.22236098 C11.6142467,8.37384065 11.2958203,8.5043122 10.9440489,8.61303848 C10.5911781,8.72176477 10.1206839,8.85407913 9.53146671,9.00924444 L10.1441353,10.5479978 C10.3434724,11.0374504 10.7260239,11.9157377 11.2925224,13.1817539 L12.2276481,15.2449734 C12.277116,15.3536997 12.4222217,15.7075209 12.6633317,16.3056997 C11.7197781,16.2902201 11.0968496,16.2824802 10.7949124,16.2824802 C10.422621,16.2824802 9.76744671,16.2902201 8.82865671,16.3056997 L7.89756171,13.205342 C7.72790529,12.7313691 7.521606,12.1718894 7.27903029,11.526903 L6.20209671,8.69449106 C6.09326743,8.43023089 5.94559671,8.03402493 5.75871814,7.50550461 C6.26622171,7.59875122 6.73268529,7.64555881 7.15774243,7.64555881 C7.82281029,7.64555881 8.44207457,7.53683252 9.01590171,7.31901138 C9.58936243,7.10155881 10.0492303,6.76542873 10.3947724,6.3109897 C10.7403146,5.85618211 10.943316,5.36120108 11.0045096,4.82494092 C11.0418853,4.4983935 11.0129374,4.19543415 10.9172996,3.91569431 C10.8216617,3.63595447 10.6344167,3.39896802 10.3551981,3.2043664 C10.0759796,3.0105019 9.73117029,2.88629593 9.32003743,2.83137995 C8.90890457,2.77756965 8.49484029,2.75029593 8.07784457,2.75029593 C7.84589529,2.75029593 7.52856814,2.75398157 7.12586314,2.76172141 C6.72352457,2.76946125 6.22847957,2.77314688 5.64182743,2.77314688 L4.88881671,7.56373767 L3.674106,16.3056997 L1.878606,16.2824802 C1.59279171,16.2824802 1.00797171,16.2902201 0.124512429,16.3056997" id="Fill-8" fill="#FFFFFF" mask="url(#mask-5)"></path>
                    </g>
                </g>
            </g>
        </g>
    </g>
</svg>
