<?xml version="1.0" encoding="UTF-8"?>
<svg width="537px" height="203px" viewBox="0 0 537 203" version="1.1" xmlns="http://www.w3.org/2000/svg" xmlns:xlink="http://www.w3.org/1999/xlink">
    <!-- Generator: Sketch 49 (51002) - http://www.bohemiancoding.com/sketch -->
    <title>ico_star_logo</title>
    <desc>Created with Sketch.</desc>
    <defs></defs>
    <g id="ico_star_logo" stroke="none" stroke-width="1" fill="none" fill-rule="evenodd">
        <g transform="translate(5.000000, 0.000000)" fill-rule="nonzero" id="Shape">
            <polygon fill="#FAFCFC" points="129.72 59.37 45.11 90.05 45.11 73.49 129.72 42.82"></polygon>
            <polygon fill="#FAFCFC" points="129.72 113.43 45.11 144.11 45.11 127.55 129.72 96.87"></polygon>
            <polygon fill="#8ADF2C" points="157.76 76.18 73.15 106.86 73.15 90.3 157.76 59.62"></polygon>
            <polygon fill="#8ADF2C" points="157.76 128.94 73.15 159.62 73.15 143.07 157.76 112.39"></polygon>
            <path d="M101.43,203 C45.4076061,202.950293 0.0234754177,157.51244 0.0400443831,101.490027 C0.0566133485,45.4676131 45.4676131,0.0566133485 101.490027,0.0400443831 C157.51244,0.0234754177 202.950293,45.4076061 203,101.43 C203.023908,128.375361 192.330491,154.223981 173.277236,173.277236 C154.223981,192.330491 128.375361,203.023908 101.43,203 Z M17.0400398,101.365039 C17.0538455,147.91776 54.7998137,185.646941 101.352536,185.640038 C147.905259,185.633135 185.640036,147.892762 185.640036,101.340039 C185.640036,54.787316 147.905259,17.0469427 101.352536,17.0400398 C54.7998137,17.033137 17.0538455,54.762318 17.0400398,101.315039 L17.0400398,101.365039 Z" fill="#FAFCFC"></path>
            <path d="M254.1,145.92 C252.8,145.92 251.44,145.92 250.1,145.78 C247.43,145.6 232.91,144.1 218.19,141.67 L218.19,140.26 C218.29,136.2 218.44,129.82 218.58,125.61 C222.81,127 227.94,128.37 231.83,129.4 L232.33,129.53 C237.800531,130.978191 243.422591,131.777027 249.08,131.91 C259.87,131.91 262.63,127.6 263.08,123.99 C263.171399,123.21298 263.137637,122.426332 262.98,121.66 C262.770596,120.772716 262.412177,119.927388 261.92,119.16 C261.286442,118.174698 260.537841,117.26832 259.69,116.46 L250,107.14 C247.65,104.94 246.18,103.54 245.37,102.62 C243.864588,101.050696 242.545818,99.3124702 241.44,97.44 C240.630557,96.005075 240.059778,94.4480994 239.75,92.83 C239.470214,91.1775666 239.433156,89.4931393 239.64,87.83 C240.76,77.94 249.07,70 259.39,69 C261.75,68.78 264.78,68.67 268.39,68.67 C272.93,68.67 277.53,68.84 281.39,69.01 C288.603333,69.0833333 322.52,69.1 383.14,69.06 L373,83.37 C368.73,83.26 349.69,82.76 345,82.76 L339.77,82.76 L339.53,84 C338.2,90.68 329.6,139.11 329.06,143.66 C323.68,143.6 311.64,143.57 306.2,143.66 C310.03,125.75 314.39,105.85 317.2,84.49 L317.43,82.76 L278.8,83.42 C277.56,83.42 276.19,83.42 274.8,83.34 C273.41,83.26 272.03,83.27 270.8,83.27 C267.59,83.27 265.74,83.52 264.62,84.11 C262.24,85.37 261.4,86.5 261.15,88.74 C261.036589,89.6878139 261.1252,90.6489005 261.41,91.56 C261.795638,92.650193 262.367446,93.6652369 263.1,94.56 C264.027524,95.7639159 265.05808,96.8848128 266.18,97.91 C267.42,99.06 269.4,100.81 272.05,103.09 L275.83,106.29 C277.016979,107.365742 278.138958,108.511095 279.19,109.72 C280.29444,110.97171 281.297602,112.309258 282.19,113.72 C282.910209,114.812176 283.510355,115.978942 283.98,117.2 C284.343646,118.194988 284.591936,119.228411 284.72,120.28 C284.849959,121.402919 284.849959,122.537081 284.72,123.66 C284.322932,126.911763 283.183587,130.02871 281.39,132.77 C275.67,141.62 266.76,145.92 254.1,145.92 Z" fill="#FEFFFF"></path>
            <path d="M374.039988,143.65 C367.659988,143.58 363.479988,143.55 361.919988,143.55 L361.209988,143.55 C358.799988,143.55 355.309988,143.55 350.799988,143.63 L354.799988,137.81 L390.619988,82.38 L394.479988,76.16 C395.539988,74.46 396.939988,72.16 398.759988,69.03 C401.909988,69.03 407.119988,69.03 413.009988,69.03 C418.599988,69.03 422.529988,69.03 425.229989,69.03 L444.089989,143.64 C440.969989,143.64 436.839989,143.64 432.589989,143.64 C428.149989,143.64 424.129989,143.64 421.269988,143.69 C420.269988,137.69 418.779988,130.64 416.759988,122.75 L416.469988,121.62 L386.809988,121.62 L386.369988,122.34 C382.479988,128.75 378.329988,135.93 374.039988,143.65 Z M393.809988,108.05 L414.999988,108.05 L410.159988,80.17 L393.809988,108.05 Z" fill="#FAFCFC"></path>
            <path d="M477.76,103.37 C480.12,103.55 482.9,103.63 484.12,103.63 C487.05205,103.634346 489.755779,103.184851 492.33,102.3 C494.766984,101.486757 496.921321,99.9950268 498.54,98 C499.993073,96.1963094 500.920421,94.0267311 501.22,91.73 C501.910169,87.7547834 499.386187,83.9293734 495.46,83 C492.938444,82.3459971 490.344969,82.0100546 487.74,82 C487.32,82 486.9,82 486.48,82 C485.14,82 483.79,82 482.34,82.09 C481.373333,82.15 479.18121,82.1966667 475.763631,82.23 L474.503631,82.23 C466.974544,117.71 462.813333,138.173333 462.02,143.62 C458.92,143.62 443.56,143.62 440.93,143.62 C441.996667,138.553333 447.117877,113.68 456.293631,69 C478.35121,68.78 490.276667,68.67 492.07,68.67 C492.243333,68.67 492.33,68.67 492.33,68.67 C492.33,68.67 501.21,68.86 504.83,69.22 C507.280894,69.4541194 509.691031,70.0053919 512,70.86 C513.856442,71.4887998 515.593982,72.4251787 517.14,73.63 C518.395952,74.6425544 519.468269,75.8637111 520.31,77.24 C521.152122,78.6811837 521.724794,80.2636582 522,81.91 C522.32326,83.8952449 522.346856,85.9177537 522.07,87.91 C521.81624,90.2382912 521.251198,92.5220027 520.39,94.7 C519.515221,96.8169297 518.325076,98.7892663 516.86,100.55 C515.316221,102.418824 513.474856,104.020305 511.41,105.29 C508.535242,106.992216 505.500776,108.408971 502.35,109.52 L500.57,110.14 L501.57,111.74 C514.52,132.03 519.62,141.37 521.57,144.74 L514.39,144.74 C510.25,144.74 505.083333,144.74 498.89,144.74 L477.76,103.37 Z" fill="#FAFCFC"></path>
            <path d="M224.15,166.83 C227.771379,170.824028 232.135961,174.074538 237,176.4 L235.46,179.12 C230.738782,176.710474 226.541398,173.389953 223.11,169.35 C219.637139,173.399677 215.403958,176.729145 210.65,179.15 L209.13,176.43 C214.043917,174.101705 218.458964,170.841363 222.13,166.83 L224.15,166.83 Z M225.37,174.83 L225.37,181.17 L233.21,181.17 L233.21,183.86 L225.37,183.86 L225.37,190.38 L235.37,190.38 L235.37,193.1 L210.53,193.1 L210.53,190.38 L214.79,190.38 L214.79,179.06 L217.58,179.06 L217.58,190.35 L222.58,190.35 L222.58,174.8 L225.37,174.83 Z" fill="#FAFCFC"></path>
            <path d="M258.16,166.8 L258.16,171.1 L260.62,171.1 L260.62,166.8 L263.39,166.8 L263.39,171.1 L265.39,171.1 C266.186653,169.86477 266.882248,168.567219 267.47,167.22 L270.07,168.22 C269.511357,169.227878 268.890141,170.19978 268.21,171.13 L272.44,171.13 L272.44,173.58 L264.18,173.58 L266.46,174.38 C266.071849,175.043092 265.637439,175.677999 265.16,176.28 L271.08,176.28 L271.08,178.74 L260.88,178.74 L260.88,180.37 L269.71,180.37 L269.71,182.71 L260.88,182.71 L260.88,184.33 L272.39,184.33 L272.39,186.82 L260.88,186.82 L260.88,194.26 L258,194.26 L258,186.82 L246.49,186.82 L246.49,184.33 L258,184.33 L258,182.71 L249.17,182.71 L249.17,180.37 L258,180.37 L258,178.74 L247.82,178.74 L247.82,176.28 L253.74,176.28 C253.362059,175.578922 252.927269,174.910014 252.44,174.28 L254.37,173.57 L246.46,173.57 L246.46,171.12 L250.66,171.12 C250.191809,170.103091 249.618701,169.137856 248.95,168.24 L251.58,167.24 C252.301538,168.467854 252.907474,169.760071 253.39,171.1 L255.39,171.1 L255.39,166.8 L258.16,166.8 Z M255.26,189 C253.289123,190.951187 251.01665,192.57197 248.53,193.8 L246.79,191.55 C249.191263,190.490411 251.416857,189.070751 253.39,187.34 L255.26,189 Z M255.26,173.57 C255.79603,174.435606 256.270534,175.337831 256.68,176.27 L262.07,176.27 C262.672188,175.40687 263.216707,174.504907 263.7,173.57 L255.26,173.57 Z M272.05,191.79 L270.05,193.79 C268.16027,192.021458 266.084878,190.462399 263.86,189.14 L265.67,187.39 C267.919174,188.67814 270.053669,190.156897 272.05,191.81 L272.05,191.79 Z" fill="#FAFCFC"></path>
            <path d="M284.6,176.25 L284.6,175 C284.22,175.44 283.83,175.85 283.45,176.27 L281.94,174.17 C284.010892,172.002648 285.829188,169.607328 287.36,167.03 L289.22,167.03 C291.22,168.95 293.07,170.94 294.82,172.98 L293.02,174.88 L292.33,174.02 L292.33,176.33 L289.87,176.33 L289.87,179.11 L293.69,179.11 L293.69,181.6 L289.87,181.6 L289.87,189.69 C291.11,189.39 292.32,189.06 293.54,188.69 L293.54,191.32 C290.18917,192.27982 286.787166,193.05103 283.35,193.63 L282.67,190.97 C284.21,190.76 285.72,190.52 287.23,190.23 L287.23,181.58 L283.23,181.58 L283.23,179.09 L287.17,179.09 L287.17,176.31 L284.6,176.25 Z M286.32,188.51 L284.25,189.04 C283.861607,187.081395 283.367552,185.145233 282.77,183.24 L284.87,182.53 C285.457887,184.496521 285.94189,186.492614 286.32,188.51 Z M292.24,173.82 C290.76,172.04 289.55,170.65 288.54,169.64 C287.634624,171.098869 286.632373,172.49534 285.54,173.82 L292.24,173.82 Z M294.08,182.97 C293.7221,184.765118 293.217062,186.527735 292.57,188.24 L290.62,187.53 C291.247251,185.882408 291.712776,184.177717 292.01,182.44 L294.08,182.97 Z M303.2,166.83 L303.2,174.59 L308.27,174.59 L308.27,191.29 C308.370182,192.051286 308.106163,192.815321 307.557343,193.352339 C307.008522,193.889357 306.238929,194.136706 305.48,194.02 L302.87,194.02 L302.19,191.41 C303.08,191.5 303.9,191.56 304.67,191.56 C305.44,191.56 305.67,191.15 305.67,190.35 L305.67,186.5 C303.54,187.09 301.29,187.62 298.92,188.07 L298.3,185.55 C300.78789,185.227415 303.25045,184.732898 305.67,184.07 L305.67,177.07 L298.15,177.07 L298.15,179.61 C299.63,179.79 300.73,179.97 301.5,180.09 C302.27,180.21 303.36,180.5 304.67,180.86 L303.75,182.99 C302.59,182.67 301.44,182.4 300.25,182.16 C299.54,182.01 298.86,181.89 298.15,181.81 L298.15,183.64 C298.09,187.97 297.2,191.49 295.42,194.22 L293.29,192.22 C294.838854,189.682784 295.620291,186.751525 295.54,183.78 L295.54,174.54 L300.54,174.54 L300.54,166.78 L303.2,166.83 Z M299,172.6 L296.87,173.67 C296.077475,171.966833 295.158226,170.325555 294.12,168.76 L296.34,167.69 C297.322368,169.272981 298.210575,170.912491 299,172.6 Z M309.39,168.52 C308.689568,170.35923 307.808597,172.124522 306.76,173.79 L304.68,172.69 C305.687899,171.037874 306.512768,169.280837 307.14,167.45 L309.39,168.52 Z" fill="#FAFCFC"></path>
            <path d="M319.78,178.41 L318.89,175.66 C321.677798,173.2033 323.840747,170.118269 325.2,166.66 L327.95,167.2 C327.66,167.99 327.3,168.76 326.95,169.5 L333.4,169.5 C333.010243,168.645699 332.565995,167.817326 332.07,167.02 L334.97,166.54 C335.39,167.43 335.77,168.41 336.19,169.54 L344.54,169.54 L344.54,171.86 L335.86,171.86 L335.86,173.51 L343.24,173.51 L343.24,175.7 L335.86,175.7 L335.86,177.28 L343.3,177.28 L343.3,179.47 L335.86,179.47 L335.86,181.16 L345.07,181.16 L345.07,183.49 L322.89,183.49 L322.89,175.41 C321.915623,176.472624 320.877008,177.474503 319.78,178.41 Z M343.36,194.26 L340.6,194.26 L340.6,193 L325.6,193 L325.6,194.28 L322.82,194.28 L322.82,185.28 L343.35,185.28 L343.36,194.26 Z M333.08,171.84 L325.61,171.84 C325.61,171.84 325.56,171.84 325.56,171.92 L325.56,173.49 L333.08,173.49 L333.08,171.84 Z M333.08,175.68 L325.56,175.68 L325.56,177.26 L333.08,177.26 L333.08,175.68 Z M333.08,179.45 L325.56,179.45 L325.56,181.14 L333.08,181.14 L333.08,179.45 Z M340.6,190.55 L340.6,187.62 L325.6,187.62 L325.6,190.55 L340.6,190.55 Z" fill="#FAFCFC"></path>
            <path d="M363.48,168.19 C361.606263,171.764537 358.831339,174.787652 355.43,176.96 L354.57,174.14 C357.248168,172.333015 359.42847,169.881036 360.91,167.01 L363.48,168.19 Z M364.85,174.97 C364.0377,176.599329 363.030308,178.123849 361.85,179.51 L361.85,194.14 L359.09,194.14 L359.09,182.26 C357.997403,183.213329 356.852277,184.104725 355.66,184.93 L354.83,182.14 C357.990693,180.032627 360.567212,177.160273 362.32,173.79 L364.85,174.97 Z M381.67,175.86 L381.67,178.62 L377.05,178.62 L377.05,191.18 C377.05,193.07 375.98,194.02 373.88,194.02 L369.58,194.02 L368.95,191.26 C370.32,191.38 371.65,191.44 372.89,191.44 C373.76,191.44 374.2,191.12 374.2,190.49 L374.2,178.62 L365.2,178.62 L365.2,175.86 L381.67,175.86 Z M380.4,168.46 L380.4,171.21 L365.93,171.21 L365.93,168.46 L380.4,168.46 Z" fill="#FAFCFC"></path>
            <path d="M411.7,166.89 L411.7,172.28 L417.57,172.28 C417.57,182.226667 417.43,188.356667 417.15,190.67 C416.88,192.8 415.58,193.86 413.24,193.87 C412.71,193.87 411.76,193.81 410.4,193.75 L409.72,191.26 C410.9,191.35 411.97,191.41 412.86,191.41 C413.75,191.41 414.4,190.76 414.57,189.46 C414.75,187.98 414.87,183.113333 414.93,174.86 L411.7,174.86 L411.7,176 C411.61,184.24 409.84,190.28 406.34,194.07 L404.65,192.59 C400.8,193.06 396.42,193.48 391.53,193.77 L391.18,191.28 C393.31,191.17 395.32,191.02 397.25,190.9 L397.25,188.83 L392.15,188.83 L392.15,186.52 L397.25,186.52 L397.25,184.95 L392.06,184.95 L392.06,175.5 L397.25,175.5 L397.25,174 L391.44,174 L391.44,171.69 L397.25,171.69 L397.25,170.15 C395.71,170.23 394.05,170.29 392.25,170.29 L391.51,168.07 C395.749853,168.178971 399.988797,167.820136 404.15,167 L405.39,169.13 C403.599537,169.575607 401.777523,169.883176 399.94,170.05 L399.94,171.8 L405.6,171.8 L405.6,174.11 L399.94,174.11 L399.94,175.53 L405.15,175.53 L405.15,184.98 L399.93,184.98 L399.93,186.55 L405.06,186.55 L405.06,188.86 L399.93,188.86 L399.93,190.69 C401.77,190.51 403.46,190.34 405.03,190.16 L405.03,191.55 C407.69,188.12 409.03,182.93 409.08,176.03 L409.08,174.9 L406.42,174.9 L406.42,172.32 L409.08,172.32 L409.08,166.93 L411.7,166.89 Z M397.42,179.21 L397.42,177.49 L394.61,177.49 L394.61,179.21 L397.42,179.21 Z M397.42,181.1 L394.61,181.1 L394.61,182.82 L397.42,182.82 L397.42,181.1 Z M399.74,179.21 L402.58,179.21 L402.58,177.49 L399.74,177.49 L399.74,179.21 Z M402.58,181.1 L399.74,181.1 L399.74,182.82 L402.58,182.82 L402.58,181.1 Z" fill="#FAFCFC"></path>
            <path d="M438.57,167.78 C437.548177,170.228521 436.235405,172.545176 434.66,174.68 L434.66,194.2 L431.87,194.2 L431.87,178 C430.645252,179.275004 429.34988,180.480235 427.99,181.61 L427.07,178.68 C430.931861,175.401768 433.967168,171.25991 435.93,166.59 L438.57,167.78 Z M453.08,177.78 L443.72,178.31 L443.72,189.68 C443.72,190.51 444.16,190.93 445.08,190.93 L449.55,190.93 C450.125179,190.960711 450.678638,190.706419 451.03,190.25 C451.33,189.8 451.54,188.25 451.6,185.51 L454.2,186.37 C454,189.77 453.61,191.85 453.08,192.56 C452.277667,193.359147 451.155012,193.749315 450.03,193.62 L444.43,193.62 C442.06,193.62 440.91,192.44 440.91,190.07 L440.91,167 L443.72,167 L443.72,175.67 L453.08,175.11 L453.08,177.78 Z" fill="#FAFCFC"></path>
            <path d="M475.58,171.86 L475.58,170.56 L464.06,170.56 L464.06,168.37 L475.58,168.37 L475.58,166.71 L478.4,166.71 L478.4,168.37 L489.93,168.37 L489.93,170.56 L478.4,170.56 L478.4,171.86 L487.4,171.86 L487.4,180.69 L486.81,180.69 C487.849452,181.788905 488.799159,182.969351 489.65,184.22 L487.78,185.49 C487.43,184.96 487.07,184.42 486.66,183.89 L484.23,184.01 L484.23,186.01 L490.23,186.01 L490.23,188.29 L484.23,188.29 L484.23,191.43 C484.23,193.15 483.23,194.01 481.39,194.01 L478.19,194.01 L477.65,191.46 C478.595256,191.58002 479.547155,191.64014 480.5,191.64 C481.15,191.64 481.5,191.34 481.5,190.75 L481.5,188.29 L471.4,188.29 C472.784888,189.152817 474.093037,190.133093 475.31,191.22 L473.42,193.15 C472.079871,191.760785 470.602312,190.511058 469.01,189.42 L470.16,188.29 L463.7,188.29 L463.7,186 L481.44,186 L481.44,184.08 C476.32,184.28 470.986667,184.466667 465.44,184.64 L464.91,182.42 C468.52,182.36 472.05,182.27 475.54,182.15 L475.54,180.64 L466.54,180.64 L466.54,171.85 L475.58,171.86 Z M475.58,175.24 L475.58,173.79 L469.27,173.79 L469.27,175.24 L475.58,175.24 Z M475.58,177.17 L469.27,177.17 L469.27,178.62 L475.58,178.62 L475.58,177.17 Z M478.36,175.24 L484.67,175.24 L484.67,173.79 L478.4,173.79 L478.36,175.24 Z M484.67,177.17 L478.4,177.17 L478.4,178.62 L484.71,178.62 L484.67,177.17 Z M484.41,181.17 L485.21,180.67 L478.4,180.67 L478.4,182.09 L485.04,181.83 C484.811921,181.63194 484.59806,181.418079 484.4,181.19 L484.41,181.17 Z" fill="#FAFCFC"></path>
            <path d="M521.25,174.06 L521.25,176.66 L514.67,176.66 C513.96,177.14 513.28,177.58 512.67,178 C513.677237,179.086876 514.507368,180.325323 515.13,181.67 C517.620293,180.654277 519.906913,179.197615 521.88,177.37 L523.88,179.27 C521.884568,181.057809 519.589399,182.479595 517.1,183.47 C519.677388,186.177188 522.753832,188.36058 526.16,189.9 L524.68,192.42 C521.515311,190.785715 518.691492,188.562637 516.36,185.87 C516.430168,186.440829 516.470224,187.014958 516.48,187.59 C516.48,189.99 516.12,191.59 515.48,192.51 C514.84,193.43 512.99,194.08 510.3,194.08 L509.3,194.08 L508.35,191.62 L509.86,191.62 C511.52,191.62 512.56,191.35 512.97,190.94 C513.570198,189.931847 513.829678,188.75717 513.71,187.59 L513.71,186.73 C509.887941,189.430086 505.633718,191.459127 501.13,192.73 L499.73,190.33 C505.51,188.7 510.01,186.59 513.24,184.05 C513.059119,183.463774 512.842035,182.889337 512.59,182.33 C509.226469,184.668088 505.475099,186.391416 501.51,187.42 L500,185 C504.01082,184.120524 507.831334,182.528644 511.28,180.3 C510.99,179.88 510.72,179.53 510.43,179.17 C510.326161,179.211921 510.225841,179.262081 510.13,179.32 C507.488674,180.494741 504.764691,181.474038 501.98,182.25 L500.56,179.91 C503.173391,179.380967 505.731298,178.607569 508.2,177.6 C508.91,177.3 509.6,177.01 510.25,176.68 L503.61,176.68 L503.61,174 L521.25,174.06 Z M514.05,169.17 L525.16,169.17 L525.16,174.68 L522.34,174.68 L522.34,171.78 L502.56,171.78 L502.56,174.68 L499.74,174.68 L499.74,169.17 L511.21,169.17 C510.925437,168.457484 510.591285,167.76579 510.21,167.1 L513.11,166.62 C513.474361,167.45031 513.788266,168.301859 514.05,169.17 Z" fill="#FAFCFC"></path>
        </g>
    </g>
</svg>